<?xml version="1.0" encoding="UTF-8"?>
<svg version="1.1" viewBox="0 0 301.71 285.42" xmlns="http://www.w3.org/2000/svg" xmlns:cc="http://creativecommons.org/ns#" xmlns:dc="http://purl.org/dc/elements/1.1/" xmlns:rdf="http://www.w3.org/1999/02/22-rdf-syntax-ns#">
<defs>
<clipPath id="j">
<path d="M 0,595.2 H 841.92 V 0 H 0 Z"/>
</clipPath>
<linearGradient id="a" x2="1" gradientTransform="matrix(-42.342 38.549 38.549 42.342 390.76 389.04)" gradientUnits="userSpaceOnUse">
<stop stop-color="#255258" offset="0"/>
<stop stop-color="#65a873" offset="1"/>
</linearGradient>
<clipPath id="k">
<path d="m325.55 420.35c24.123-17.732 52.211-34.698 71.716-43.829l0.106 0.518-31.554 62.781c-14.757 0.414-47.249 4.756-60.632 23.301-0.435-12.527 12.761-33.33 20.364-42.771"/>
</clipPath>
<linearGradient id="b" x2="1" gradientTransform="matrix(-3.7916 32.229 32.229 3.7916 335.38 452.51)" gradientUnits="userSpaceOnUse">
<stop stop-color="#5a956f" offset="0"/>
<stop stop-color="#1f4153" offset="1"/>
</linearGradient>
<clipPath id="l">
<path d="m305.18 463.12c13.383-18.545 45.875-22.887 60.632-23.301-4.323 1.613-21.922 7.479-24.85 10.622-24.848 10.62-23.32 37.91-23.717 62.12 0 1e-3 0 1e-3 -1e-3 1e-3 -0.288-5e-3 -12.01-47.976-12.064-49.442"/>
</clipPath>
<clipPath id="m">
<path d="M 0,595.2 H 841.92 V 0 H 0 Z"/>
</clipPath>
<linearGradient id="c" x2="1" gradientTransform="matrix(26.541 25.909 25.909 -26.541 455 390.08)" gradientUnits="userSpaceOnUse">
<stop stop-color="#255258" offset="0"/>
<stop stop-color="#65a873" offset="1"/>
</linearGradient>
<clipPath id="n">
<path d="m475.34 439.67-33.722-61.641 0.083-0.521c19.815 8.444 48.475 24.418 73.204 41.298 7.925 9.172 21.841 29.5 21.841 42.035-14.02-18.066-46.643-21.272-61.406-21.171"/>
</clipPath>
<linearGradient id="d" x2="1" gradientTransform="matrix(4.7394 27.489 27.489 -4.7394 506.32 451.88)" gradientUnits="userSpaceOnUse">
<stop stop-color="#5a956f" offset="0"/>
<stop stop-color="#1f4253" offset="1"/>
</linearGradient>
<clipPath id="o">
<path d="m526.41 510.67c-1.242-24.181-0.666-51.507-25.867-61.255-3.037-3.037-20.834-8.289-25.209-9.747 14.763-0.101 47.386 3.105 61.406 21.171 0 1.466-10.048 49.827-10.33 49.831"/>
</clipPath>
<clipPath id="p">
<path d="M 0,595.2 H 841.92 V 0 H 0 Z"/>
</clipPath>
<linearGradient id="e" x2="1" gradientTransform="matrix(-.13731 10.162 10.162 .13731 421.47 285.76)" gradientUnits="userSpaceOnUse">
<stop stop-color="#255258" offset="0"/>
<stop stop-color="#65a873" offset="1"/>
</linearGradient>
<clipPath id="q">
<path d="m402.09 290.8s12.148-2.663 17.65-2.378c0.517 0.029 2.803 0.029 3.318 0 5.508-0.285 17.656 2.378 17.656 2.378-6.648-0.764-13.41 0.954-19.759 4.156-5.822-3.202-12.221-4.92-18.865-4.156"/>
</clipPath>
<linearGradient id="f" x2="1" gradientTransform="matrix(-3.3875 -53.635 -53.635 3.3875 419.78 347.14)" gradientUnits="userSpaceOnUse">
<stop stop-color="#255258" offset="0"/>
<stop stop-color="#65a873" offset="1"/>
</linearGradient>
<clipPath id="r">
<path d="m389.09 334.19c1.016-11.587 14.98-30.705 31.865-39.228 15.481 8.523 26.871 27.641 27.883 39.228z"/>
</clipPath>
<linearGradient id="g" x2="1" gradientTransform="matrix(67.492 -42.444 -42.444 -67.492 340.72 369.07)" gradientUnits="userSpaceOnUse">
<stop stop-color="#255258" offset="0"/>
<stop stop-color="#65a873" offset="1"/>
</linearGradient>
<clipPath id="s">
<path d="m309.06 402.98s21.082-16.203 24.389-16.203c0.304 0 21.392 3.545 26.995 5.785-0.16-9.084-1.631-27.779-0.857-30.045 1.035-3.03 23.338-32.996 23.338-33.032 0-3.844-0.951-15.424-0.951-17.015 0-0.892 20.123-21.668 20.123-21.668 6.644-0.764 13.043 0.954 18.865 4.156-16.885 8.523-30.849 27.641-31.865 39.228l7.766 39.245c-20.045 9.369-45.296 25.295-67.47 39.716-6.743-2.347-21.123-7.796-20.333-10.167"/>
</clipPath>
<linearGradient id="h" x2="1" gradientTransform="matrix(-27.135 -14.611 -14.611 27.135 480.54 354.34)" gradientUnits="userSpaceOnUse">
<stop stop-color="#255258" offset="0"/>
<stop stop-color="#65a873" offset="1"/>
</linearGradient>
<clipPath id="t">
<path d="m490 399.44c-18.164-10.892-34.904-19.573-47.801-24.957l6.641-40.298c-1.012-11.587-12.402-30.705-27.883-39.228 6.349-3.202 13.111-4.92 19.759-4.156 0 0 20.12 20.776 20.12 21.668 0 1.591-0.951 13.171-0.951 17.015 0 0.036 22.301 30.002 23.339 33.032 0.776 2.266-0.699 20.961-0.859 30.045 5.603-2.24 26.694-5.785 26.996-5.785h4e-3c3.303 0 24.387 16.203 24.387 16.203 0.838 2.514-15.393 8.493-21.468 10.559-6.989-4.674-14.45-9.404-22.284-14.098"/>
</clipPath>
<clipPath id="i">
<rect x="224.28" y="307.21" width="301.71" height="285.42" fill="#527b92" opacity=".85" stroke-width="2.8198"/>
</clipPath>
</defs>
<metadata>
<rdf:RDF>
<cc:Work rdf:about="">
<dc:format>image/svg+xml</dc:format>
<dc:type rdf:resource="http://purl.org/dc/dcmitype/StillImage"/>
</cc:Work>
</rdf:RDF>
</metadata>
<g transform="translate(-224.28 -307.21)" clip-path="url(#i)">
<g transform="matrix(1.25 0 0 -1.25 -150.89 947.57)">
<g clip-path="url(#t)">
<path d="m490 399.44c-18.164-10.892-34.904-19.573-47.801-24.957l6.641-40.298c-1.012-11.587-12.402-30.705-27.883-39.228 6.349-3.202 13.111-4.92 19.759-4.156 0 0 20.12 20.776 20.12 21.668 0 1.591-0.951 13.171-0.951 17.015 0 0.036 22.301 30.002 23.339 33.032 0.776 2.266-0.699 20.961-0.859 30.045 5.603-2.24 26.694-5.785 26.996-5.785h4e-3c3.303 0 24.387 16.203 24.387 16.203 0.838 2.514-15.393 8.493-21.468 10.559-6.989-4.674-14.45-9.404-22.284-14.098" fill="url(#h)"/>
</g>
<g clip-path="url(#s)">
<path d="m309.06 402.98s21.082-16.203 24.389-16.203c0.304 0 21.392 3.545 26.995 5.785-0.16-9.084-1.631-27.779-0.857-30.045 1.035-3.03 23.338-32.996 23.338-33.032 0-3.844-0.951-15.424-0.951-17.015 0-0.892 20.123-21.668 20.123-21.668 6.644-0.764 13.043 0.954 18.865 4.156-16.885 8.523-30.849 27.641-31.865 39.228l7.766 39.245c-20.045 9.369-45.296 25.295-67.47 39.716-6.743-2.347-21.123-7.796-20.333-10.167" fill="url(#g)"/>
</g>
<g clip-path="url(#r)">
<path d="m389.09 334.19c1.016-11.587 14.98-30.705 31.865-39.228 15.481 8.523 26.871 27.641 27.883 39.228z" fill="url(#f)"/>
</g>
<g clip-path="url(#q)">
<path d="m402.09 290.8s12.148-2.663 17.65-2.378c0.517 0.029 2.803 0.029 3.318 0 5.508-0.285 17.656 2.378 17.656 2.378-6.648-0.764-13.41 0.954-19.759 4.156-5.822-3.202-12.221-4.92-18.865-4.156" fill="url(#e)"/>
</g>
<g clip-path="url(#p)">
<g transform="translate(526.41 510.67)">
<path d="m0 0c-1.953-0.554-22.225-57.608-25.867-61.255 25.201 9.748 24.625 37.074 25.867 61.255" fill="#66a873"/>
</g>
</g>
<g clip-path="url(#o)">
<path d="m526.41 510.67c-1.242-24.181-0.666-51.507-25.867-61.255-3.037-3.037-20.834-8.289-25.209-9.747 14.763-0.101 47.386 3.105 61.406 21.171 0 1.466-10.048 49.827-10.33 49.831" fill="url(#d)"/>
</g>
<g clip-path="url(#n)">
<path d="m475.34 439.67-33.722-61.641 0.083-0.521c19.815 8.444 48.475 24.418 73.204 41.298 7.925 9.172 21.841 29.5 21.841 42.035-14.02-18.066-46.643-21.272-61.406-21.171" fill="url(#c)"/>
</g>
<g clip-path="url(#m)">
<g transform="translate(317.25 512.56)">
<path d="M 0,0 C 1.934,-0.623 20.197,-58.352 23.717,-62.121 -1.131,-51.501 0.396,-24.211 0,0" fill="#64a874"/>
</g>
</g>
<g clip-path="url(#l)">
<path d="m305.18 463.12c13.383-18.545 45.875-22.887 60.632-23.301-4.323 1.613-21.922 7.479-24.85 10.622-24.848 10.62-23.32 37.91-23.717 62.12 0 1e-3 0 1e-3 -1e-3 1e-3 -0.288-5e-3 -12.01-47.976-12.064-49.442" fill="url(#b)"/>
</g>
<g clip-path="url(#k)">
<path d="m325.55 420.35c24.123-17.732 52.211-34.698 71.716-43.829l0.106 0.518-31.554 62.781c-14.757 0.414-47.249 4.756-60.632 23.301-0.435-12.527 12.761-33.33 20.364-42.771" fill="url(#a)"/>
</g>
<g clip-path="url(#j)">
<g transform="translate(281.63 214.6)">
<path d="m0 0c0 1.84-1.504 3.344-3.26 3.344h-7.941v-17.389h7.941c1.756 0 3.26 1.506 3.26 3.428zm-11.201 12.793h6.603c1.756 0 3.26 1.504 3.26 3.26v5.767c0 1.84-1.504 3.346-3.26 3.346h-6.603zm21.234-13.295v-9.863c0-7.358-5.935-13.377-13.293-13.377h-15.885c-1.169 0-2.089 0.92-2.089 2.09v54.341c0 1.171 0.92 2.091 2.089 2.091h14.547c7.358 0 13.293-6.02 13.293-13.378v-5.433c0-2.758-0.752-5.268-2.258-7.358 2.258-2.424 3.596-5.601 3.596-9.113" fill="#68987b"/>
</g>
<g transform="translate(323.52 249.38)">
<path d="m0 0h5.852c1.169 0 2.089-1.005 2.089-2.175v-45.646c0-5.854-4.849-10.701-10.701-10.701h-9.197c-5.852 0-10.701 4.847-10.701 10.701v45.646c0 1.17 0.92 2.175 2.092 2.175h5.851c1.17 0 2.09-1.005 2.09-2.175v-44.644c0-1.17 1.004-2.09 2.174-2.09h6.185c1.172 0 2.174 0.92 2.174 2.09v44.644c0 1.17 0.92 2.175 2.092 2.175" fill="#68987b"/>
</g>
<g transform="translate(351.53 247.29)">
<path d="m0 0v-46.902h11.703c1.17 0 2.09-0.918 2.09-2.09v-5.35c0-1.17-0.92-2.09-2.09-2.09h-19.646c-1.17 0-2.09 0.92-2.09 2.09v54.342c0 1.171 0.92 2.091 2.09 2.091h5.851c1.172 0 2.092-0.92 2.092-2.091" fill="#68987b"/>
</g>
<g transform="translate(383.3 247.29)">
<path d="m0 0v-46.902h11.703c1.17 0 2.09-0.918 2.09-2.09v-5.35c0-1.17-0.92-2.09-2.09-2.09h-19.646c-1.17 0-2.09 0.92-2.09 2.09v54.342c0 1.171 0.92 2.091 2.09 2.091h5.851c1.172 0 2.092-0.92 2.092-2.091" fill="#68987b"/>
</g>
<g transform="translate(426.27 214.6)">
<path d="m0 0c0 1.84-1.504 3.344-3.26 3.344h-7.941v-17.389h7.941c1.756 0 3.26 1.506 3.26 3.428zm-11.201 12.793h6.603c1.756 0 3.26 1.504 3.26 3.26v5.767c0 1.84-1.504 3.346-3.26 3.346h-6.603zm21.234-13.295v-9.863c0-7.358-5.935-13.377-13.293-13.377h-15.885c-1.169 0-2.089 0.92-2.089 2.09v54.341c0 1.171 0.92 2.091 2.089 2.091h14.547c7.358 0 13.293-6.02 13.293-13.378v-5.433c0-2.758-0.752-5.268-2.258-7.358 2.258-2.424 3.596-5.601 3.596-9.113" fill="#68987b"/>
</g>
<g transform="translate(510.29 247.29)">
<path d="m0 0v-5.518c0-1.169-1.002-2.089-2.09-2.089h-7.189v-46.735c0-1.17-0.92-2.09-2.09-2.09h-5.854c-1.086 0-2.089 0.92-2.089 2.09v46.735h-7.106c-1.17 0-2.09 0.92-2.09 2.089v5.518c0 1.171 0.92 2.091 2.09 2.091h24.328c1.088 0 2.09-0.92 2.09-2.091" fill="#68987b"/>
</g>
<g transform="translate(528.36 239.85)">
<path d="m0 0v-12.455h7.357c1.17 0 2.09-0.92 2.09-2.092v-5.183c0-1.17-0.92-2.09-2.09-2.09h-7.357v-17.641h11.621c1.17 0 2.09-0.918 2.09-2.09v-5.349c0-1.17-0.92-2.09-2.09-2.09h-19.646c-1.172 0-2.092 0.92-2.092 2.09v54.341c0 1.171 0.92 2.091 2.092 2.091h19.646c1.17 0 2.09-0.92 2.09-2.091v-5.349c0-1.172-0.92-2.092-2.09-2.092z" fill="#68987b"/>
</g>
<g transform="translate(571 234.58)">
<path d="m0 0v1.756c0 1.838-1.506 3.26-3.344 3.26h-3.845c-1.84 0-3.346-1.422-3.346-3.26v-5.1c0-1.84 1.506-3.261 3.346-3.345h3.845c7.44 0 13.375-5.936 13.375-13.377v-10.282c0-7.357-6.019-13.377-13.375-13.377h-3.845c-7.358 0-13.377 6.02-13.377 13.377v6.854c0 1.172 0.92 2.092 2.089 2.092h5.852c1.172 0 2.09-0.92 2.09-2.092v-7.274c0-1.837 1.506-3.343 3.346-3.343h3.845c1.838 0 3.344 1.506 3.344 3.343v10.87c0 1.839-1.506 3.259-3.344 3.259h-3.845c-7.358 0.084-13.377 5.938-13.377 13.295v4.764c0 7.357 6.019 13.378 13.377 13.378h3.845c7.44 0 13.375-6.021 13.375-13.378v-1.42c0-1.172-0.918-2.09-2.09-2.09h-5.851c-1.17 0-2.09 0.918-2.09 2.09" fill="#68987b"/>
</g>
<g transform="translate(346.19 152.93)">
<path d="m0 0c-0.711-0.684-1.816-1.133-3.318-1.133-1.45 0-2.555 0.397-3.293 1.133-0.869 0.869-1.159 1.949-1.159 3.951h2.266c0-1.238 0.131-1.924 0.631-2.449 0.316-0.344 0.844-0.58 1.555-0.58 0.763 0 1.263 0.236 1.607 0.605 0.5 0.553 0.606 1.266 0.606 2.502 0 2.16-0.317 2.819-1.844 3.451l-2.133 0.87c-1.924 0.789-2.555 1.843-2.555 4.687 0 1.633 0.473 2.977 1.422 3.846 0.736 0.683 1.738 1.08 2.975 1.08 1.371 0 2.398-0.397 3.109-1.08 0.947-0.922 1.236-2.135 1.236-3.846h-2.263c0 1-0.106 1.686-0.58 2.266-0.317 0.394-0.817 0.631-1.528 0.631-0.658 0-1.132-0.237-1.449-0.579-0.447-0.501-0.658-1.265-0.658-2.24 0-1.844 0.291-2.396 1.791-3.027l2.107-0.869c2.133-0.869 2.633-2.186 2.633-5.137 0-1.949-0.262-3.186-1.158-4.082" fill="#525759"/>
</g>
<g transform="translate(354.38 168.7)">
<path d="m0 0v-16.723h-2.264v16.723h-3.162v2.029h8.561v-2.029z" fill="#525759"/>
</g>
<g transform="translate(364.02 168.7)">
<path d="m0 0h-2.002v-6.662h2.002c1.738 0 2.133 1.342 2.133 3.344 0 1.976-0.395 3.318-2.133 3.318m2.635-16.723-2.582 8.059h-2.055v-8.059h-2.264v18.752h4.241c2.843 0 4.423-1.238 4.423-5.347 0-2.608-0.632-4.135-2.265-4.899l2.871-8.506z" fill="#525759"/>
</g>
<g transform="translate(377.32 168.2)">
<path d="m0 0c-0.314 0.422-0.789 0.711-1.527 0.711-0.737 0-1.211-0.289-1.528-0.711-0.658-0.895-0.789-2.396-0.789-6.848 0-4.451 0.131-5.951 0.789-6.847 0.317-0.422 0.791-0.711 1.528-0.711 0.738 0 1.213 0.289 1.527 0.711 0.66 0.896 0.791 2.396 0.791 6.847 0 4.452-0.131 5.953-0.791 6.848m1.713-15.09c-0.711-0.791-1.738-1.344-3.24-1.344-1.5 0-2.502 0.553-3.213 1.344-1.291 1.422-1.369 3.555-1.369 8.242 0 4.688 0.078 6.823 1.369 8.244 0.711 0.79 1.713 1.342 3.213 1.342 1.502 0 2.529-0.552 3.24-1.342 1.291-1.421 1.344-3.556 1.344-8.244 0-4.687-0.053-6.82-1.344-8.242" fill="#525759"/>
</g>
<g transform="translate(390.41 151.98)">
<path d="m0 0-4.846 12.826v-12.826h-2.265v18.752h2.107l4.82-12.826-0.027 12.826h2.266v-18.752z" fill="#525759"/>
</g>
<g transform="translate(400 151.77)">
<path d="m0 0c-1.5 0-2.502 0.553-3.213 1.344-1.291 1.422-1.369 3.554-1.369 8.242 0 4.687 0.078 6.822 1.369 8.244 0.711 0.789 1.713 1.342 3.213 1.342 1.318 0 2.318-0.447 3.029-1.158 0.869-0.895 1.291-2.186 1.317-3.713h-2.264c0 1.263-0.344 2.844-2.082 2.844-0.736 0-1.211-0.29-1.527-0.711-0.659-0.895-0.789-2.397-0.789-6.848s0.13-5.951 0.789-6.848c0.316-0.422 0.791-0.711 1.527-0.711 1.318 0 2.082 1.08 2.082 2.608v3.74h-2.082v1.896h4.346v-5.556c0-3.11-1.897-4.715-4.346-4.715" fill="#525759"/>
</g>
<g transform="translate(419.3 152.93)">
<path d="m0 0c-0.713-0.684-1.818-1.133-3.318-1.133-1.45 0-2.555 0.397-3.293 1.133-0.869 0.869-1.159 1.949-1.159 3.951h2.264c0-1.238 0.133-1.924 0.633-2.449 0.316-0.344 0.842-0.58 1.555-0.58 0.763 0 1.263 0.236 1.605 0.605 0.5 0.553 0.606 1.266 0.606 2.502 0 2.16-0.317 2.819-1.844 3.451l-2.133 0.87c-1.922 0.789-2.555 1.843-2.555 4.687 0 1.633 0.475 2.977 1.422 3.846 0.738 0.683 1.738 1.08 2.977 1.08 1.369 0 2.396-0.397 3.107-1.08 0.949-0.922 1.238-2.135 1.238-3.846h-2.265c0 1-0.106 1.686-0.578 2.266-0.317 0.394-0.817 0.631-1.53 0.631-0.658 0-1.13-0.237-1.447-0.579-0.447-0.501-0.658-1.265-0.658-2.24 0-1.844 0.289-2.396 1.791-3.027l2.105-0.869c2.135-0.869 2.635-2.186 2.635-5.137 0-1.949-0.263-3.186-1.158-4.082" fill="#525759"/>
</g>
<g transform="translate(428.94 168.2)">
<path d="m0 0c-0.314 0.422-0.789 0.711-1.527 0.711-0.737 0-1.211-0.289-1.528-0.711-0.658-0.895-0.789-2.396-0.789-6.848 0-4.451 0.131-5.951 0.789-6.847 0.317-0.422 0.791-0.711 1.528-0.711 0.738 0 1.213 0.289 1.527 0.711 0.66 0.896 0.791 2.396 0.791 6.847 0 4.452-0.131 5.953-0.791 6.848m1.713-15.09c-0.711-0.791-1.738-1.344-3.24-1.344-1.5 0-2.502 0.553-3.213 1.344-1.291 1.422-1.369 3.555-1.369 8.242 0 4.688 0.078 6.823 1.369 8.244 0.711 0.79 1.713 1.342 3.213 1.342 1.502 0 2.529-0.552 3.24-1.342 1.291-1.421 1.344-3.556 1.344-8.244 0-4.687-0.053-6.82-1.344-8.242" fill="#525759"/>
</g>
<g transform="translate(437.18 168.7)">
<path d="m0 0v-6.293h4.293v-2.029h-4.293v-8.401h-2.266v18.752h7.243v-2.029z" fill="#525759"/>
</g>
<g transform="translate(449.09 168.7)">
<path d="m0 0v-16.723h-2.264v16.723h-3.162v2.029h8.561v-2.029z" fill="#525759"/>
</g>
<g transform="translate(467.47 151.98)">
<path d="m0 0h-2.344l-2.924 15.09-2.896-15.09h-2.344l-3.24 18.752h2.502l1.924-15.092 2.791 15.092h2.527l2.846-15.092 1.896 15.092h2.475z" fill="#525759"/>
</g>
<g transform="translate(476.5 167.07)">
<path d="m0 0-1.764-8.639h3.502zm3.057-15.09-0.897 4.424h-4.346l-0.894-4.424h-2.371l4.373 18.752h2.185l4.346-18.752z" fill="#525759"/>
</g>
<g transform="translate(488.04 168.7)">
<path d="m0 0h-2.002v-6.662h2.002c1.738 0 2.133 1.342 2.133 3.344 0 1.976-0.395 3.318-2.133 3.318m2.633-16.723-2.58 8.059h-2.055v-8.059h-2.266v18.752h4.241c2.845 0 4.425-1.238 4.425-5.347 0-2.608-0.632-4.135-2.265-4.899l2.871-8.506z" fill="#525759"/>
</g>
<g transform="translate(495.76 151.98)">
<path d="m0 0v18.752h7.242v-2.029h-4.978v-6.293h4.293v-2.03h-4.293v-6.373h4.978v-2.027z" fill="#525759"/>
</g>
<g transform="translate(472.42 236.49)">
<path d="m0 0c-1.789 7e-3 -3.579 5e-3 -5.368 1e-3 -0.137 0-0.188 0.025-0.188 0.178 5e-3 1.797 5e-3 3.592 1e-3 5.388-1e-3 0.147 0.04 0.184 0.184 0.184 1.796-6e-3 3.594-6e-3 5.39 0 0.154 0 0.176-0.057 0.174-0.19-4e-3 -0.898-2e-3 -1.797-2e-3 -2.695 0-0.89-4e-3 -1.781 4e-3 -2.672 2e-3 -0.156-0.042-0.194-0.195-0.194m-16.372-15.06c1e-3 -0.149-0.046-0.18-0.187-0.179-0.698 6e-3 -1.396 3e-3 -2.096 3e-3s-1.399 3e-3 -2.098-3e-3c-0.132-1e-3 -0.176 0.028-0.175 0.169 5e-3 1.362 5e-3 2.723 0 4.085-1e-3 0.142 0.044 0.169 0.175 0.169 1.399-4e-3 2.798-5e-3 4.196 0 0.141 0 0.186-0.032 0.185-0.18-5e-3 -1.355-5e-3 -2.71 0-4.064m18.132 26.108c-0.332 0.68-0.842 1.111-1.614 1.193h-0.881c-0.087-0.099-0.072-0.22-0.072-0.337-2e-3 -0.831 0-1.661 0-2.493-2e-3 -0.315-0.01-0.324-0.319-0.324-1.212-1e-3 -2.426-1e-3 -3.638 0-0.31 0-0.319 9e-3 -0.319 0.324-2e-3 0.832 0 1.662-2e-3 2.493 0 0.117 0.017 0.238-0.069 0.337h-1.236c-0.301-0.035-0.589-0.101-0.846-0.278-0.622-0.431-0.944-1.015-0.944-1.773 2e-3 -2.009 0-4.018 4e-3 -6.029 0-0.303-0.036-0.601-0.073-0.9-0.091-0.715-0.403-1.352-0.716-1.985-0.644-1.306-1.289-2.613-1.92-3.929-0.178-0.378-0.158-0.41 0.272-0.41 1.14-1e-3 2.281 0 3.422-1e-3 0.275 0 0.295-0.019 0.295-0.285v-6.095c0-0.282-0.016-0.295-0.305-0.295-2.215 0-4.432 2e-3 -6.648-4e-3 -0.224-1e-3 -0.346 0.078-0.442 0.277-0.534 1.115-1.08 2.225-1.623 3.336-0.678 1.389-1.356 2.777-2.037 4.164-0.587 1.189-1.155 2.385-1.756 3.567-0.338 0.664-0.656 1.332-0.699 2.098-0.018 0.331-0.059 0.345-0.404 0.345-0.795 2e-3 -1.59 0-2.385 0-0.312 0-0.316 6e-3 -0.316 0.325 0 1.17-1e-3 2.341 0 3.511 0 0.312 9e-3 0.32 0.324 0.32 0.809 2e-3 1.619-2e-3 2.427 2e-3 0.291 2e-3 0.336 0.046 0.34 0.332 4e-3 0.391 2e-3 0.781 0 1.17-2e-3 0.279 0.024 0.561-0.017 0.838-0.142 0.922-0.773 1.527-1.768 1.699h-4.374c-0.091-0.107-0.069-0.236-0.071-0.359-2e-3 -1.178 0-2.356-2e-3 -3.533 0-0.314-6e-3 -0.322-0.321-0.322-1.044-1e-3 -2.089 0-3.134-2e-3 -0.123 0-0.254 0.021-0.36-0.069v-6.627c0.014-0.014 0.037-0.027 0.039-0.045 0.088-0.833 0.35-1.612 0.714-2.36 0.069-0.142 0.147-0.208 0.326-0.206 2.237 9e-3 4.476 4e-3 6.714 0.01 0.164 0 0.208-0.04 0.207-0.206-7e-3 -2.136-7e-3 -4.271 1e-3 -6.406 0-0.174-0.055-0.201-0.212-0.2-1.104 7e-3 -2.209 3e-3 -3.313 3e-3 -0.075 0-0.153-7e-3 -0.241-0.01 0.271-0.562 0.531-1.099 0.79-1.638 0.56-1.164 1.164-2.305 1.714-3.474 0.548-1.161 1.155-2.292 1.706-3.454 0.523-1.11 1.115-2.184 1.624-3.301 0.05-0.111 0.11-0.142 0.228-0.141 0.722 6e-3 1.442 2e-3 2.164 4e-3 0.105 0 0.178 4e-3 0.178-0.144-8e-3 -1.068-6e-3 -2.135-2e-3 -3.202 1e-3 -0.119-0.037-0.15-0.15-0.148-0.333 8e-3 -0.666-0.012-0.995 8e-3 -0.215 0.012-0.277-0.039-0.277-0.27 8e-3 -6.603 4e-3 -13.208 9e-3 -19.812 1e-3 -0.766 0.407-1.314 1.041-1.691 0.394-0.234 0.847-0.277 1.299-0.277 1.811 2e-3 3.624-4e-3 5.434 4e-3 0.512 2e-3 1.004 0.109 1.416 0.439 0.455 0.367 0.782 0.83 0.783 1.417 0.013 6.62 6e-3 13.239 0.013 19.859 0 0.179-0.063 0.198-0.216 0.196-0.661-6e-3 -1.324 3e-3 -1.988-6e-3 -0.159-3e-3 -0.191 0.047-0.189 0.198 4e-3 2.886 4e-3 5.771-2e-3 8.658 0 0.16 0.033 0.211 0.203 0.209 0.655-0.012 1.311-6e-3 1.967-6e-3 1.258 0 2.516 0 3.777 2e-3 0.09 0 0.181-0.024 0.232 0.1 0.315 0.784 0.739 1.516 1.096 2.279 0.652 1.389 1.343 2.762 2.018 4.142 0.361 0.739 0.733 1.472 1.088 2.213 0.324 0.676 0.675 1.338 0.99 2.02 0.396 0.858 0.826 1.699 1.25 2.545 0.292 0.586 0.598 1.166 0.747 1.809 0.059 0.263 0.103 0.529 0.154 0.793v9.323c-0.045 0.159-0.035 0.328-0.11 0.485" fill="#69997c" fill-rule="evenodd"/>
</g>
<g transform="translate(471.87 237.4)">
<path d="m0 0c0-0.065-0.054-0.118-0.119-0.118h-3.924c-0.066 0-0.119 0.053-0.119 0.118v3.924c0 0.066 0.053 0.119 0.119 0.119h3.924c0.065 0 0.119-0.053 0.119-0.119z" fill="#69997c" fill-rule="evenodd"/>
</g>
<g transform="translate(458.14 236.57)">
<path d="m0 0c0-0.045-0.037-0.083-0.084-0.083h-2.753c-0.046 0-0.082 0.038-0.082 0.083v2.753c0 0.046 0.036 0.084 0.082 0.084h2.753c0.047 0 0.084-0.038 0.084-0.084z" fill="#69997c" fill-rule="evenodd"/>
</g>
<g transform="translate(458.83 227.61)">
<path d="m0 0v0.441c0.06 0.319 0.184 0.614 0.328 0.902 0.55 1.087 1.062 2.19 1.607 3.279 0.073 0.149 0.135 0.314 0.317 0.37h3.05c0.037-0.06 0.02-0.129 0.02-0.193 1e-3 -1.532-2e-3 -3.063 5e-3 -4.594 2e-3 -0.184-0.048-0.232-0.23-0.23-1.635 6e-3 -3.269 4e-3 -4.904 4e-3 -0.064 0-0.132-0.016-0.193 0.021" fill="#69997c"/>
</g>
<g transform="translate(462.14 214.14)">
<path d="m0 0v6.272c0.275 0.052 0.553 0.011 0.829 0.022 0.356 0.016 0.714-0.026 1.069 0.022h0.046c0.076-0.041 0.157-0.02 0.237-0.021 1.017-4e-3 2.035 6e-3 3.052-5e-3 0.129-0.134 0.027-0.265-0.023-0.38-0.109-0.25-0.26-0.478-0.382-0.721-0.325-0.634-0.676-1.256-1.007-1.888-0.332-0.632-0.658-1.268-1.013-1.883-0.204-0.348-0.305-0.693-0.278-1.09 0.01-0.121 0.047-0.273-0.116-0.348-0.156-0.017-0.315 0.024-0.47-0.025h-0.046c-0.326 0.049-0.653 0.01-0.982 0.022-0.306 0.013-0.611-0.028-0.916 0.023" fill="#69997c"/>
</g>
<g transform="translate(462.14 214.14)">
<path d="m0 0h1.622c0.095 0 0.191 0.013 0.276-0.045-0.595 0-1.191 0-1.788 4e-3 -0.034 0-0.107-0.057-0.11 0.041" fill="#69997c" fill-rule="evenodd"/>
</g>
<g transform="translate(464.58 214.14)">
<path d="m0 0c-2e-3 -0.016-5e-3 -0.029-8e-3 -0.045h-0.484c0.158 0.082 0.328 0.029 0.492 0.045" fill="#69997c" fill-rule="evenodd"/>
</g>
<g transform="translate(442.07 234.05)">
<path d="m0 0c0.109 0 0.174 5e-3 0.25 5e-3 2.052 2e-3 4.104-1e-3 6.154 6e-3 0.192 0 0.25-0.045 0.25-0.243-0.01-1.376-8e-3 -2.75-2e-3 -4.126 2e-3 -0.185-0.052-0.235-0.234-0.234-1.383 7e-3 -2.766 3e-3 -4.148 2e-3 -0.513 1.029-1.031 2.057-1.541 3.087-0.242 0.485-0.493 1.016-0.729 1.503" fill="#69997c" fill-rule="evenodd"/>
</g>
<g transform="translate(455.31 222.02)">
<path d="m0 0c0-0.048-0.039-0.089-0.088-0.089h-2.901c-0.05 0-0.088 0.041-0.088 0.089v2.901c0 0.049 0.038 0.088 0.088 0.088h2.901c0.049 0 0.088-0.039 0.088-0.088z" fill="#69997c" fill-rule="evenodd"/>
</g>
<g transform="translate(470.94 246.39)">
<path d="m0 0c0-0.047-0.036-0.085-0.083-0.085h-2.765c-0.047 0-0.084 0.038-0.084 0.085v2.765c0 0.046 0.037 0.083 0.084 0.083h2.765c0.047 0 0.083-0.037 0.083-0.083z" fill="#69997c" fill-rule="evenodd"/>
</g>
<g transform="translate(475.68 250.13)">
<path d="m0 0c0-0.022-0.019-0.041-0.041-0.041h-1.396c-0.022 0-0.042 0.019-0.042 0.041v1.396c0 0.022 0.02 0.041 0.042 0.041h1.396c0.022 0 0.041-0.019 0.041-0.041z" fill="#69997c" fill-rule="evenodd"/>
</g>
<g transform="translate(477.75 249.71)">
<path d="m0 0c0-0.012-0.01-0.021-0.02-0.021h-0.676c-0.012 0-0.023 9e-3 -0.023 0.021v0.676c0 0.011 0.011 0.02 0.023 0.02h0.676c0.01 0 0.02-9e-3 0.02-0.02z" fill="#69997c" fill-rule="evenodd"/>
</g>
<g transform="translate(465.67 256.35)">
<path d="m0 0c0-0.014-0.013-0.024-0.026-0.024h-0.79c-0.014 0-0.025 0.01-0.025 0.024v0.791c0 0.014 0.011 0.023 0.025 0.023h0.79c0.013 0 0.026-9e-3 0.026-0.023z" fill="#69997c" fill-rule="evenodd"/>
</g>
<g transform="translate(448.45 255.51)">
<path d="m0 0c0-0.013-0.012-0.024-0.024-0.024h-0.791c-0.014 0-0.025 0.011-0.025 0.024v0.792c0 0.013 0.011 0.024 0.025 0.024h0.791c0.012 0 0.024-0.011 0.024-0.024z" fill="#69997c" fill-rule="evenodd"/>
</g>
<g transform="translate(468.84 253.54)">
<path d="m0 0c0-0.021-0.017-0.038-0.038-0.038h-1.238c-0.021 0-0.037 0.017-0.037 0.038v1.238c0 0.021 0.016 0.037 0.037 0.037h1.238c0.021 0 0.038-0.016 0.038-0.037z" fill="#69997c" fill-rule="evenodd"/>
</g>
<g transform="translate(465.55 250.3)">
<path d="m0 0c0-0.051-0.041-0.092-0.093-0.092h-3.013c-0.05 0-0.091 0.041-0.091 0.092v3.016c0 0.049 0.041 0.09 0.091 0.09h3.013c0.052 0 0.093-0.041 0.093-0.09z" fill="#69997c" fill-rule="evenodd"/>
</g>
<g transform="translate(451.53 251.13)">
<path d="m0 0c0-0.051-0.04-0.092-0.091-0.092h-3.014c-0.05 0-0.09 0.041-0.09 0.092v3.015c0 0.049 0.04 0.09 0.09 0.09h3.014c0.051 0 0.091-0.041 0.091-0.09z" fill="#69997c" fill-rule="evenodd"/>
</g>
<g transform="translate(473.67 253.55)">
<path d="m0 0c0-0.028-0.023-0.052-0.054-0.052h-1.705c-0.029 0-0.053 0.024-0.053 0.052v1.706c0 0.03 0.024 0.052 0.053 0.052h1.705c0.031 0 0.054-0.022 0.054-0.052z" fill="#69997c" fill-rule="evenodd"/>
</g>
<g transform="translate(445.26 253.06)">
<path d="m0 0c0-0.027-0.021-0.053-0.051-0.053h-1.706c-0.029 0-0.053 0.026-0.053 0.053v1.707c0 0.028 0.024 0.051 0.053 0.051h1.706c0.03 0 0.051-0.023 0.051-0.051z" fill="#69997c" fill-rule="evenodd"/>
</g>
<g transform="translate(440.21 251.57)">
<path d="m0 0c0-0.028-0.023-0.052-0.052-0.052h-1.706c-0.028 0-0.051 0.024-0.051 0.052v1.706c0 0.029 0.023 0.052 0.051 0.052h1.706c0.029 0 0.052-0.023 0.052-0.052z" fill="#69997c" fill-rule="evenodd"/>
</g>
<g transform="translate(439.11 243.85)">
<path d="m0 0c0-0.024-0.021-0.046-0.044-0.046h-1.489c-0.024 0-0.044 0.022-0.044 0.046v1.488c0 0.025 0.02 0.044 0.044 0.044h1.489c0.023 0 0.044-0.019 0.044-0.044z" fill="#69997c" fill-rule="evenodd"/>
</g>
<g transform="translate(437.14 248.38)">
<path d="m0 0c0-0.014-0.011-0.023-0.023-0.023h-0.793c-0.013 0-0.024 9e-3 -0.024 0.023v0.791c0 0.014 0.011 0.023 0.024 0.023h0.793c0.012 0 0.023-9e-3 0.023-0.023z" fill="#69997c" fill-rule="evenodd"/>
</g>
<g transform="translate(477.01 253.34)">
<path d="m0 0c0-0.01-0.01-0.02-0.021-0.02h-0.674c-0.012 0-0.022 0.01-0.022 0.02v0.678c0 0.01 0.01 0.019 0.022 0.019h0.674c0.011 0 0.021-9e-3 0.021-0.019z" fill="#69997c" fill-rule="evenodd"/>
</g>
<g transform="translate(478.16 247.02)">
<path d="m0 0c0-0.011-0.01-0.021-0.02-0.021h-0.675c-0.012 0-0.022 0.01-0.022 0.021v0.676c0 0.011 0.01 0.02 0.022 0.02h0.675c0.01 0 0.02-9e-3 0.02-0.02z" fill="#69997c" fill-rule="evenodd"/>
</g>
<g transform="translate(453.21 241.54)">
<path d="m0 0c0-0.058-0.046-0.104-0.104-0.104h-3.079c-0.056 0-0.102 0.046-0.102 0.104v2.221c0 0.058 0.046 0.105 0.102 0.105h3.079c0.058 0 0.104-0.047 0.104-0.105z" fill="#69997c"/>
</g>
<g transform="translate(444.42 245.77)">
<path d="m0 0c-1.247 0-2.495 2e-3 -3.741-4e-3 -0.119 0-0.151 0.018-0.15 0.145 7e-3 0.82 3e-3 1.642 3e-3 2.464 0.035 0.554 0.268 0.992 0.713 1.338 0.308 0.242 0.653 0.289 1.011 0.34h2.164c0.036-0.053 0.021-0.113 0.021-0.171v-3.941c0-0.058 0.015-0.118-0.021-0.171" fill="#69997c"/>
</g>
<g transform="translate(444.42 245.77)">
<path d="m0 0v4.283c0.038 0.01 0.046-5e-3 0.046-0.044-2e-3 -1.398-2e-3 -2.797 0-4.196 0-0.037-8e-3 -0.054-0.046-0.043" fill="#69997c" fill-rule="evenodd"/>
</g>
</g>
</g>
</g>
</svg>
